<svg xmlns="http://www.w3.org/2000/svg" xmlns:xlink="http://www.w3.org/1999/xlink" contentStyleType="text/css" data-diagram-type="CLASS" height="826px" preserveAspectRatio="none" style="width:1107px;height:826px;background:#FFFFFF;" version="1.1" viewBox="0 0 1107 826" width="1107px" zoomAndPan="magnify"><defs/><g><!--class Customer--><g class="entity" data-entity="Customer" data-source-line="1" data-uid="ent0002" id="entity_Customer"><rect fill="#F1F1F1" height="194.6719" rx="2.5" ry="2.5" style="stroke:#181818;stroke-width:0.5;" width="270.4736" x="418.44" y="7"/><ellipse cx="515.4249" cy="23" fill="#ADD1B2" rx="11" ry="11" style="stroke:#181818;stroke-width:1;"/><path d="M518.3936,28.6406 Q517.8155,28.9375 517.1749,29.0781 Q516.5342,29.2344 515.8311,29.2344 Q513.3311,29.2344 512.003,27.5938 Q510.6905,25.9375 510.6905,22.8125 Q510.6905,19.6875 512.003,18.0313 Q513.3311,16.375 515.8311,16.375 Q516.5342,16.375 517.1749,16.5313 Q517.8311,16.6875 518.3936,16.9844 L518.3936,19.7031 Q517.7686,19.125 517.1749,18.8594 Q516.5811,18.5781 515.9561,18.5781 Q514.6124,18.5781 513.9249,19.6563 Q513.2374,20.7188 513.2374,22.8125 Q513.2374,24.9063 513.9249,25.9844 Q514.6124,27.0469 515.9561,27.0469 Q516.5811,27.0469 517.1749,26.7813 Q517.7686,26.5 518.3936,25.9219 L518.3936,28.6406 Z " fill="#000000"/><text fill="#000000" font-family="sans-serif" font-size="14" lengthAdjust="spacing" textLength="68.0039" x="535.9249" y="27.8467">Customer</text><line style="stroke:#181818;stroke-width:0.5;" x1="419.44" x2="687.9136" y1="39" y2="39"/><rect fill="none" height="6" style="stroke:#C82930;stroke-width:1;" width="6" x="426.44" y="49.6484"/><text fill="#000000" font-family="sans-serif" font-size="14" lengthAdjust="spacing" textLength="90.6514" x="438.44" y="55.9951">String name;</text><rect fill="none" height="6" style="stroke:#C82930;stroke-width:1;" width="6" x="426.44" y="65.9453"/><text fill="#000000" font-family="sans-serif" font-size="14" lengthAdjust="spacing" textLength="150.7666" x="438.44" y="72.292">List&lt;Rental&gt; rentals;</text><line style="stroke:#181818;stroke-width:0.5;" x1="419.44" x2="687.9136" y1="79.5938" y2="79.5938"/><ellipse cx="429.44" cy="93.2422" fill="#84BE84" rx="3" ry="3" style="stroke:#038048;stroke-width:1;"/><text fill="#000000" font-family="sans-serif" font-size="14" lengthAdjust="spacing" textLength="164.8623" x="438.44" y="96.5889">Costumer(String name)</text><ellipse cx="429.44" cy="109.5391" fill="#84BE84" rx="3" ry="3" style="stroke:#038048;stroke-width:1;"/><text fill="#000000" font-family="sans-serif" font-size="14" lengthAdjust="spacing" textLength="207.3477" x="438.44" y="112.8857">void addRental(Rental rental)</text><ellipse cx="429.44" cy="125.8359" fill="#84BE84" rx="3" ry="3" style="stroke:#038048;stroke-width:1;"/><text fill="#000000" font-family="sans-serif" font-size="14" lengthAdjust="spacing" textLength="121.4473" x="438.44" y="129.1826">String getName()</text><ellipse cx="429.44" cy="142.1328" fill="#84BE84" rx="3" ry="3" style="stroke:#038048;stroke-width:1;"/><text fill="#000000" font-family="sans-serif" font-size="14" lengthAdjust="spacing" textLength="129.2334" x="438.44" y="145.4795">String statement()</text><rect fill="#F24D5C" height="6" style="stroke:#C82930;stroke-width:1;" width="6" x="426.44" y="155.4297"/><text fill="#000000" font-family="sans-serif" font-size="14" lengthAdjust="spacing" textLength="124.8516" x="438.44" y="161.7764">String rentalInfo()</text><rect fill="#F24D5C" height="6" style="stroke:#C82930;stroke-width:1;" width="6" x="426.44" y="171.7266"/><text fill="#000000" font-family="sans-serif" font-size="14" lengthAdjust="spacing" textLength="171.6367" x="438.44" y="178.0732">double getTotalCharge()</text><rect fill="#F24D5C" height="6" style="stroke:#C82930;stroke-width:1;" width="6" x="426.44" y="188.0234"/><text fill="#000000" font-family="sans-serif" font-size="14" lengthAdjust="spacing" textLength="244.4736" x="438.44" y="194.3701">int getTotalFrequentRenterPoints()</text></g><!--class Rental--><g class="entity" data-entity="Rental" data-source-line="13" data-uid="ent0003" id="entity_Rental"><rect fill="#F1F1F1" height="178.375" rx="2.5" ry="2.5" style="stroke:#181818;stroke-width:0.5;" width="285.8203" x="410.76" y="261.68"/><ellipse cx="526.8342" cy="277.68" fill="#ADD1B2" rx="11" ry="11" style="stroke:#181818;stroke-width:1;"/><path d="M529.803,283.3206 Q529.2248,283.6175 528.5842,283.7581 Q527.9436,283.9144 527.2405,283.9144 Q524.7405,283.9144 523.4123,282.2737 Q522.0998,280.6175 522.0998,277.4925 Q522.0998,274.3675 523.4123,272.7112 Q524.7405,271.055 527.2405,271.055 Q527.9436,271.055 528.5842,271.2112 Q529.2405,271.3675 529.803,271.6644 L529.803,274.3831 Q529.178,273.805 528.5842,273.5394 Q527.9905,273.2581 527.3655,273.2581 Q526.0217,273.2581 525.3342,274.3362 Q524.6467,275.3987 524.6467,277.4925 Q524.6467,279.5862 525.3342,280.6644 Q526.0217,281.7269 527.3655,281.7269 Q527.9905,281.7269 528.5842,281.4612 Q529.178,281.18 529.803,280.6019 L529.803,283.3206 Z " fill="#000000"/><text fill="#000000" font-family="sans-serif" font-size="14" lengthAdjust="spacing" textLength="45.1719" x="547.3342" y="282.5267">Rental</text><line style="stroke:#181818;stroke-width:0.5;" x1="411.76" x2="695.5803" y1="293.68" y2="293.68"/><rect fill="none" height="6" style="stroke:#C82930;stroke-width:1;" width="6" x="418.76" y="304.3284"/><text fill="#000000" font-family="sans-serif" font-size="14" lengthAdjust="spacing" textLength="93.5908" x="430.76" y="310.6751">Movie movie;</text><rect fill="none" height="6" style="stroke:#C82930;stroke-width:1;" width="6" x="418.76" y="320.6253"/><text fill="#000000" font-family="sans-serif" font-size="14" lengthAdjust="spacing" textLength="110.667" x="430.76" y="326.972">int daysRented;</text><line style="stroke:#181818;stroke-width:0.5;" x1="411.76" x2="695.5803" y1="334.2737" y2="334.2737"/><ellipse cx="421.76" cy="347.9222" fill="#84BE84" rx="3" ry="3" style="stroke:#038048;stroke-width:1;"/><text fill="#000000" font-family="sans-serif" font-size="14" lengthAdjust="spacing" textLength="259.8203" x="430.76" y="351.2689">Rental(Movie movie, int daysRented)</text><ellipse cx="421.76" cy="364.2191" fill="#84BE84" rx="3" ry="3" style="stroke:#038048;stroke-width:1;"/><text fill="#000000" font-family="sans-serif" font-size="14" lengthAdjust="spacing" textLength="141.7568" x="430.76" y="367.5657">int getDaysRented()</text><ellipse cx="421.76" cy="380.5159" fill="#84BE84" rx="3" ry="3" style="stroke:#038048;stroke-width:1;"/><text fill="#000000" font-family="sans-serif" font-size="14" lengthAdjust="spacing" textLength="121.2285" x="430.76" y="383.8626">Movie getMovie()</text><ellipse cx="421.76" cy="396.8128" fill="#84BE84" rx="3" ry="3" style="stroke:#038048;stroke-width:1;"/><text fill="#000000" font-family="sans-serif" font-size="14" lengthAdjust="spacing" textLength="110.5781" x="430.76" y="400.1595">String getTitle()</text><ellipse cx="421.76" cy="413.1097" fill="#84BE84" rx="3" ry="3" style="stroke:#038048;stroke-width:1;"/><text fill="#000000" font-family="sans-serif" font-size="14" lengthAdjust="spacing" textLength="136.5615" x="430.76" y="416.4564">double getCharge()</text><ellipse cx="421.76" cy="429.4066" fill="#84BE84" rx="3" ry="3" style="stroke:#038048;stroke-width:1;"/><text fill="#000000" font-family="sans-serif" font-size="14" lengthAdjust="spacing" textLength="209.3984" x="430.76" y="432.7532">int getFrequentRenterPoints()</text></g><!--class Movie--><g class="entity" data-entity="Movie" data-source-line="24" data-uid="ent0004" id="entity_Movie"><rect fill="#F1F1F1" height="129.4844" rx="2.5" ry="2.5" style="stroke:#181818;stroke-width:0.5;" width="341.3486" x="383" y="500.05"/><ellipse cx="528.708" cy="516.05" fill="#A9DCDF" rx="11" ry="11" style="stroke:#181818;stroke-width:1;"/><path d="M528.8174,511.3937 L527.6611,516.4719 L529.9893,516.4719 L528.8174,511.3937 Z M527.333,509.1594 L530.3174,509.1594 L533.6768,521.55 L531.2236,521.55 L530.458,518.4875 L527.1768,518.4875 L526.4268,521.55 L523.9893,521.55 L527.333,509.1594 Z " fill="#000000"/><text fill="#000000" font-family="sans-serif" font-size="14" font-style="italic" lengthAdjust="spacing" textLength="41.4326" x="549.208" y="520.8967">Movie</text><line style="stroke:#181818;stroke-width:0.5;" x1="384" x2="723.3486" y1="532.05" y2="532.05"/><rect fill="none" height="6" style="stroke:#C82930;stroke-width:1;" width="6" x="391" y="542.6984"/><text fill="#000000" font-family="sans-serif" font-size="14" lengthAdjust="spacing" textLength="73.6025" x="403" y="549.0451">String title</text><line style="stroke:#181818;stroke-width:0.5;" x1="384" x2="723.3486" y1="556.3469" y2="556.3469"/><ellipse cx="394" cy="569.9953" fill="#84BE84" rx="3" ry="3" style="stroke:#038048;stroke-width:1;"/><text fill="#000000" font-family="sans-serif" font-size="14" lengthAdjust="spacing" textLength="125.959" x="403" y="573.342">Movie(String title)</text><ellipse cx="394" cy="586.2922" fill="#84BE84" rx="3" ry="3" style="stroke:#038048;stroke-width:1;"/><text fill="#000000" font-family="sans-serif" font-size="14" lengthAdjust="spacing" textLength="110.5781" x="403" y="589.6389">String getTitle()</text><ellipse cx="394" cy="602.5891" fill="#84BE84" rx="3" ry="3" style="stroke:#038048;stroke-width:1;"/><text fill="#000000" font-family="sans-serif" font-size="14" lengthAdjust="spacing" textLength="242.5117" x="403" y="605.9357">double getCharge(int daysRented)</text><ellipse cx="394" cy="618.8859" fill="#84BE84" rx="3" ry="3" style="stroke:#038048;stroke-width:1;"/><text fill="#000000" font-family="sans-serif" font-size="14" lengthAdjust="spacing" textLength="315.3486" x="403" y="622.2326">int getFrequentRenterPoints(int daysRented)</text></g><!--class RegularMovie--><g class="entity" data-entity="RegularMovie" data-source-line="32" data-uid="ent0005" id="entity_RegularMovie"><rect fill="#F1F1F1" height="129.4844" rx="2.5" ry="2.5" style="stroke:#181818;stroke-width:0.5;" width="341.3486" x="7" y="689.54"/><ellipse cx="125.5454" cy="705.54" fill="#ADD1B2" rx="11" ry="11" style="stroke:#181818;stroke-width:1;"/><path d="M128.5142,711.1806 Q127.936,711.4775 127.2954,711.6181 Q126.6548,711.7744 125.9517,711.7744 Q123.4517,711.7744 122.1235,710.1338 Q120.811,708.4775 120.811,705.3525 Q120.811,702.2275 122.1235,700.5713 Q123.4517,698.915 125.9517,698.915 Q126.6548,698.915 127.2954,699.0713 Q127.9517,699.2275 128.5142,699.5244 L128.5142,702.2431 Q127.8892,701.665 127.2954,701.3994 Q126.7017,701.1181 126.0767,701.1181 Q124.7329,701.1181 124.0454,702.1963 Q123.3579,703.2588 123.3579,705.3525 Q123.3579,707.4463 124.0454,708.5244 Q124.7329,709.5869 126.0767,709.5869 Q126.7017,709.5869 127.2954,709.3213 Q127.8892,709.04 128.5142,708.4619 L128.5142,711.1806 Z " fill="#000000"/><text fill="#000000" font-family="sans-serif" font-size="14" lengthAdjust="spacing" textLength="95.7578" x="146.0454" y="710.3867">RegularMovie</text><line style="stroke:#181818;stroke-width:0.5;" x1="8" x2="347.3486" y1="721.54" y2="721.54"/><rect fill="none" height="6" style="stroke:#C82930;stroke-width:1;" width="6" x="15" y="732.1884"/><text fill="#000000" font-family="sans-serif" font-size="14" lengthAdjust="spacing" text-decoration="underline" textLength="159.0791" x="27" y="738.5351">double CHARGE = 2.0;</text><rect fill="none" height="6" style="stroke:#C82930;stroke-width:1;" width="6" x="15" y="748.4853"/><text fill="#000000" font-family="sans-serif" font-size="14" lengthAdjust="spacing" text-decoration="underline" textLength="209.8223" x="27" y="754.832">double EXTRA CHARGE = 1.5;</text><rect fill="none" height="6" style="stroke:#C82930;stroke-width:1;" width="6" x="15" y="764.7822"/><text fill="#000000" font-family="sans-serif" font-size="14" lengthAdjust="spacing" text-decoration="underline" textLength="282.1533" x="27" y="771.1289">final int DAYS RENTED THRESHOLD = 2;</text><line style="stroke:#181818;stroke-width:0.5;" x1="8" x2="347.3486" y1="778.4306" y2="778.4306"/><ellipse cx="18" cy="792.0791" fill="#84BE84" rx="3" ry="3" style="stroke:#038048;stroke-width:1;"/><text fill="#000000" font-family="sans-serif" font-size="14" lengthAdjust="spacing" textLength="242.5117" x="27" y="795.4257">double getCharge(int daysRented)</text><ellipse cx="18" cy="808.3759" fill="#84BE84" rx="3" ry="3" style="stroke:#038048;stroke-width:1;"/><text fill="#000000" font-family="sans-serif" font-size="14" lengthAdjust="spacing" textLength="315.3486" x="27" y="811.7226">int getFrequentRenterPoints(int daysRented)</text></g><!--class ChildrenMovie--><g class="entity" data-entity="ChildrenMovie" data-source-line="39" data-uid="ent0006" id="entity_ChildrenMovie"><rect fill="#F1F1F1" height="129.4844" rx="2.5" ry="2.5" style="stroke:#181818;stroke-width:0.5;" width="341.3486" x="383" y="689.54"/><ellipse cx="499.4297" cy="705.54" fill="#ADD1B2" rx="11" ry="11" style="stroke:#181818;stroke-width:1;"/><path d="M502.3984,711.1806 Q501.8203,711.4775 501.1797,711.6181 Q500.5391,711.7744 499.8359,711.7744 Q497.3359,711.7744 496.0078,710.1338 Q494.6953,708.4775 494.6953,705.3525 Q494.6953,702.2275 496.0078,700.5713 Q497.3359,698.915 499.8359,698.915 Q500.5391,698.915 501.1797,699.0713 Q501.8359,699.2275 502.3984,699.5244 L502.3984,702.2431 Q501.7734,701.665 501.1797,701.3994 Q500.5859,701.1181 499.9609,701.1181 Q498.6172,701.1181 497.9297,702.1963 Q497.2422,703.2588 497.2422,705.3525 Q497.2422,707.4463 497.9297,708.5244 Q498.6172,709.5869 499.9609,709.5869 Q500.5859,709.5869 501.1797,709.3213 Q501.7734,709.04 502.3984,708.4619 L502.3984,711.1806 Z " fill="#000000"/><text fill="#000000" font-family="sans-serif" font-size="14" lengthAdjust="spacing" textLength="99.9893" x="519.9297" y="710.3867">ChildrenMovie</text><line style="stroke:#181818;stroke-width:0.5;" x1="384" x2="723.3486" y1="721.54" y2="721.54"/><rect fill="none" height="6" style="stroke:#C82930;stroke-width:1;" width="6" x="391" y="732.1884"/><text fill="#000000" font-family="sans-serif" font-size="14" lengthAdjust="spacing" text-decoration="underline" textLength="159.0791" x="403" y="738.5351">double CHARGE = 1.5;</text><rect fill="none" height="6" style="stroke:#C82930;stroke-width:1;" width="6" x="391" y="748.4853"/><text fill="#000000" font-family="sans-serif" font-size="14" lengthAdjust="spacing" text-decoration="underline" textLength="209.8223" x="403" y="754.832">double EXTRA CHARGE = 1.5;</text><rect fill="none" height="6" style="stroke:#C82930;stroke-width:1;" width="6" x="391" y="764.7822"/><text fill="#000000" font-family="sans-serif" font-size="14" lengthAdjust="spacing" text-decoration="underline" textLength="247.543" x="403" y="771.1289">int DAYS RENTED THRESHOLD = 3;</text><line style="stroke:#181818;stroke-width:0.5;" x1="384" x2="723.3486" y1="778.4306" y2="778.4306"/><ellipse cx="394" cy="792.0791" fill="#84BE84" rx="3" ry="3" style="stroke:#038048;stroke-width:1;"/><text fill="#000000" font-family="sans-serif" font-size="14" lengthAdjust="spacing" textLength="242.5117" x="403" y="795.4257">double getCharge(int daysRented)</text><ellipse cx="394" cy="808.3759" fill="#84BE84" rx="3" ry="3" style="stroke:#038048;stroke-width:1;"/><text fill="#000000" font-family="sans-serif" font-size="14" lengthAdjust="spacing" textLength="315.3486" x="403" y="811.7226">int getFrequentRenterPoints(int daysRented)</text></g><!--class NewReleaseMovie--><g class="entity" data-entity="NewReleaseMovie" data-source-line="46" data-uid="ent0007" id="entity_NewReleaseMovie"><rect fill="#F1F1F1" height="129.4844" rx="2.5" ry="2.5" style="stroke:#181818;stroke-width:0.5;" width="341.3486" x="759" y="689.54"/><ellipse cx="861.7749" cy="705.54" fill="#ADD1B2" rx="11" ry="11" style="stroke:#181818;stroke-width:1;"/><path d="M864.7437,711.1806 Q864.1655,711.4775 863.5249,711.6181 Q862.8843,711.7744 862.1812,711.7744 Q859.6812,711.7744 858.353,710.1338 Q857.0405,708.4775 857.0405,705.3525 Q857.0405,702.2275 858.353,700.5713 Q859.6812,698.915 862.1812,698.915 Q862.8843,698.915 863.5249,699.0713 Q864.1812,699.2275 864.7437,699.5244 L864.7437,702.2431 Q864.1187,701.665 863.5249,701.3994 Q862.9312,701.1181 862.3062,701.1181 Q860.9624,701.1181 860.2749,702.1963 Q859.5874,703.2588 859.5874,705.3525 Q859.5874,707.4463 860.2749,708.5244 Q860.9624,709.5869 862.3062,709.5869 Q862.9312,709.5869 863.5249,709.3213 Q864.1187,709.04 864.7437,708.4619 L864.7437,711.1806 Z " fill="#000000"/><text fill="#000000" font-family="sans-serif" font-size="14" lengthAdjust="spacing" textLength="127.2988" x="882.2749" y="710.3867">NewReleaseMovie</text><line style="stroke:#181818;stroke-width:0.5;" x1="760" x2="1099.3486" y1="721.54" y2="721.54"/><rect fill="none" height="6" style="stroke:#C82930;stroke-width:1;" width="6" x="767" y="732.1884"/><text fill="#000000" font-family="sans-serif" font-size="14" lengthAdjust="spacing" text-decoration="underline" textLength="145.7217" x="779" y="738.5351">double CHARGE = 3;</text><rect fill="none" height="6" style="stroke:#C82930;stroke-width:1;" width="6" x="767" y="748.4853"/><text fill="#000000" font-family="sans-serif" font-size="14" lengthAdjust="spacing" text-decoration="underline" textLength="196.4648" x="779" y="754.832">double EXTRA CHARGE = 1;</text><rect fill="none" height="6" style="stroke:#C82930;stroke-width:1;" width="6" x="767" y="764.7822"/><text fill="#000000" font-family="sans-serif" font-size="14" lengthAdjust="spacing" text-decoration="underline" textLength="247.543" x="779" y="771.1289">int DAYS RENTED THRESHOLD = 2;</text><line style="stroke:#181818;stroke-width:0.5;" x1="760" x2="1099.3486" y1="778.4306" y2="778.4306"/><ellipse cx="770" cy="792.0791" fill="#84BE84" rx="3" ry="3" style="stroke:#038048;stroke-width:1;"/><text fill="#000000" font-family="sans-serif" font-size="14" lengthAdjust="spacing" textLength="242.5117" x="779" y="795.4257">double getCharge(int daysRented)</text><ellipse cx="770" cy="808.3759" fill="#84BE84" rx="3" ry="3" style="stroke:#038048;stroke-width:1;"/><text fill="#000000" font-family="sans-serif" font-size="14" lengthAdjust="spacing" textLength="315.3486" x="779" y="811.7226">int getFrequentRenterPoints(int daysRented)</text></g><!--link Customer to Rental--><g class="link" data-entity-1="Customer" data-entity-2="Rental" data-source-line="54" data-uid="lnk8" id="link_Customer_Rental"><path codeLine="54" d="M553.67,213.98 C553.67,233.61 553.67,236.15 553.67,255.47" fill="none" id="Customer-Rental" style="stroke:#181818;stroke-width:1;"/><polygon fill="none" points="553.67,201.98,549.67,207.98,553.67,213.98,557.67,207.98,553.67,201.98" style="stroke:#181818;stroke-width:1;"/><polygon fill="#181818" points="553.67,261.47,557.67,252.47,553.67,256.47,549.67,252.47,553.67,261.47" style="stroke:#181818;stroke-width:1;"/></g><!--link Rental to Movie--><g class="link" data-entity-1="Rental" data-entity-2="Movie" data-source-line="55" data-uid="lnk9" id="link_Rental_Movie"><path codeLine="55" d="M553.67,440.51 C553.67,460.36 553.67,475.05 553.67,493.67" fill="none" id="Rental-to-Movie" style="stroke:#181818;stroke-width:1;"/><polygon fill="#181818" points="553.67,499.67,557.67,490.67,553.67,494.67,549.67,490.67,553.67,499.67" style="stroke:#181818;stroke-width:1;"/></g><!--reverse link Movie to RegularMovie--><g class="link" data-entity-1="Movie" data-entity-2="RegularMovie" data-source-line="56" data-uid="lnk10" id="link_Movie_RegularMovie"><path codeLine="56" d="M408.9611,637.9514 C370.5711,657.0914 344.61,670.04 306.23,689.18" fill="none" id="Movie-backto-RegularMovie" style="stroke:#181818;stroke-width:1;"/><polygon fill="none" points="425.07,629.92,406.284,632.5817,411.6382,643.321,425.07,629.92" style="stroke:#181818;stroke-width:1;"/></g><!--reverse link Movie to ChildrenMovie--><g class="link" data-entity-1="Movie" data-entity-2="ChildrenMovie" data-source-line="57" data-uid="lnk11" id="link_Movie_ChildrenMovie"><path codeLine="57" d="M553.67,647.79 C553.67,666.99 553.67,670.05 553.67,689.25" fill="none" id="Movie-backto-ChildrenMovie" style="stroke:#181818;stroke-width:1;"/><polygon fill="none" points="553.67,629.79,547.67,647.79,559.67,647.79,553.67,629.79" style="stroke:#181818;stroke-width:1;"/></g><!--reverse link Movie to NewReleaseMovie--><g class="link" data-entity-1="Movie" data-entity-2="NewReleaseMovie" data-source-line="58" data-uid="lnk12" id="link_Movie_NewReleaseMovie"><path codeLine="58" d="M698.3889,637.9514 C736.7789,657.0914 762.74,670.04 801.12,689.18" fill="none" id="Movie-backto-NewReleaseMovie" style="stroke:#181818;stroke-width:1;"/><polygon fill="none" points="682.28,629.92,695.7118,643.321,701.066,632.5817,682.28,629.92" style="stroke:#181818;stroke-width:1;"/></g><!--SRC=[jPJDRu8m6CRl_1KzOZRDDhCJpiG0cqkSMu33TgoqOXEWMLiqY_D_Nxz4P7DoySB7ypvF-_vuWJI7d0E_ue8Mc86jqmUnOAJCG0aBxCdR6U5Y5E5Im7mCc3vppxa2FkMYaXctuUy1MLXJWW14o6HSSxB9dgnRVuR5N4RSXiG55BYGHYdMVPZWSxcaMaMqMkHOfHCgTNy5MOPrXPIYbXyP_gnaK6sEsHkLDIvDEyT9DR1jIk6-q3N1e517pww2u1VNIQH0BKV3TzroAGIxUr2B6io4fAult6FyX8ZSQ0UecgTUyJGAN731O2g0OJ9xDIOerFhx9jocsBcFavn_TjLsDnvtLkMGxJlSga6JT5TFqvzEegSGF82xmOttkno-9z7aOBeTt3TDIrBAKQgzWyb73A9mdeG1IAPH64zVPu5QrRi4cq7pLoH7yXqzpzPgknFRVrJ32rBDyIR2EOOSd-SQTg3godIPIJdr_uts4TsK_R7zg1tx7zYh6jOnoADlenwzlEtQqVJRnTP3_040]--></g></svg>