<svg xmlns="http://www.w3.org/2000/svg" xmlns:xlink="http://www.w3.org/1999/xlink" contentStyleType="text/css" data-diagram-type="CLASS" height="1048px" preserveAspectRatio="none" style="width:1006px;height:1048px;background:#FFFFFF;" version="1.1" viewBox="0 0 1006 1048" width="1006px" zoomAndPan="magnify"><defs/><g><!--class Customer--><g class="entity" data-entity="Customer" data-source-line="1" data-uid="ent0002" id="entity_Customer"><rect fill="#F1F1F1" height="194.6719" rx="2.5" ry="2.5" style="stroke:#181818;stroke-width:0.5;" width="270.4736" x="351.84" y="7"/><ellipse cx="448.8249" cy="23" fill="#ADD1B2" rx="11" ry="11" style="stroke:#181818;stroke-width:1;"/><path d="M451.7936,28.6406 Q451.2155,28.9375 450.5749,29.0781 Q449.9342,29.2344 449.2311,29.2344 Q446.7311,29.2344 445.403,27.5938 Q444.0905,25.9375 444.0905,22.8125 Q444.0905,19.6875 445.403,18.0313 Q446.7311,16.375 449.2311,16.375 Q449.9342,16.375 450.5749,16.5313 Q451.2311,16.6875 451.7936,16.9844 L451.7936,19.7031 Q451.1686,19.125 450.5749,18.8594 Q449.9811,18.5781 449.3561,18.5781 Q448.0124,18.5781 447.3249,19.6563 Q446.6374,20.7188 446.6374,22.8125 Q446.6374,24.9063 447.3249,25.9844 Q448.0124,27.0469 449.3561,27.0469 Q449.9811,27.0469 450.5749,26.7813 Q451.1686,26.5 451.7936,25.9219 L451.7936,28.6406 Z " fill="#000000"/><text fill="#000000" font-family="sans-serif" font-size="14" lengthAdjust="spacing" textLength="68.0039" x="469.3249" y="27.8467">Customer</text><line style="stroke:#181818;stroke-width:0.5;" x1="352.84" x2="621.3136" y1="39" y2="39"/><rect fill="none" height="6" style="stroke:#C82930;stroke-width:1;" width="6" x="359.84" y="49.6484"/><text fill="#000000" font-family="sans-serif" font-size="14" lengthAdjust="spacing" textLength="90.6514" x="371.84" y="55.9951">String name;</text><rect fill="none" height="6" style="stroke:#C82930;stroke-width:1;" width="6" x="359.84" y="65.9453"/><text fill="#000000" font-family="sans-serif" font-size="14" lengthAdjust="spacing" textLength="150.7666" x="371.84" y="72.292">List&lt;Rental&gt; rentals;</text><line style="stroke:#181818;stroke-width:0.5;" x1="352.84" x2="621.3136" y1="79.5938" y2="79.5938"/><ellipse cx="362.84" cy="93.2422" fill="#84BE84" rx="3" ry="3" style="stroke:#038048;stroke-width:1;"/><text fill="#000000" font-family="sans-serif" font-size="14" lengthAdjust="spacing" textLength="164.8623" x="371.84" y="96.5889">Costumer(String name)</text><ellipse cx="362.84" cy="109.5391" fill="#84BE84" rx="3" ry="3" style="stroke:#038048;stroke-width:1;"/><text fill="#000000" font-family="sans-serif" font-size="14" lengthAdjust="spacing" textLength="207.3477" x="371.84" y="112.8857">void addRental(Rental rental)</text><ellipse cx="362.84" cy="125.8359" fill="#84BE84" rx="3" ry="3" style="stroke:#038048;stroke-width:1;"/><text fill="#000000" font-family="sans-serif" font-size="14" lengthAdjust="spacing" textLength="121.4473" x="371.84" y="129.1826">String getName()</text><ellipse cx="362.84" cy="142.1328" fill="#84BE84" rx="3" ry="3" style="stroke:#038048;stroke-width:1;"/><text fill="#000000" font-family="sans-serif" font-size="14" lengthAdjust="spacing" textLength="129.2334" x="371.84" y="145.4795">String statement()</text><rect fill="#F24D5C" height="6" style="stroke:#C82930;stroke-width:1;" width="6" x="359.84" y="155.4297"/><text fill="#000000" font-family="sans-serif" font-size="14" lengthAdjust="spacing" textLength="124.8516" x="371.84" y="161.7764">String rentalInfo()</text><rect fill="#F24D5C" height="6" style="stroke:#C82930;stroke-width:1;" width="6" x="359.84" y="171.7266"/><text fill="#000000" font-family="sans-serif" font-size="14" lengthAdjust="spacing" textLength="171.6367" x="371.84" y="178.0732">double getTotalCharge()</text><rect fill="#F24D5C" height="6" style="stroke:#C82930;stroke-width:1;" width="6" x="359.84" y="188.0234"/><text fill="#000000" font-family="sans-serif" font-size="14" lengthAdjust="spacing" textLength="244.4736" x="371.84" y="194.3701">int getTotalFrequentRenterPoints()</text></g><!--class Rental--><g class="entity" data-entity="Rental" data-source-line="13" data-uid="ent0003" id="entity_Rental"><rect fill="#F1F1F1" height="162.0781" rx="2.5" ry="2.5" style="stroke:#181818;stroke-width:0.5;" width="285.8203" x="344.17" y="261.67"/><ellipse cx="460.2442" cy="277.67" fill="#ADD1B2" rx="11" ry="11" style="stroke:#181818;stroke-width:1;"/><path d="M463.213,283.3106 Q462.6348,283.6075 461.9942,283.7481 Q461.3536,283.9044 460.6505,283.9044 Q458.1505,283.9044 456.8223,282.2637 Q455.5098,280.6075 455.5098,277.4825 Q455.5098,274.3575 456.8223,272.7012 Q458.1505,271.045 460.6505,271.045 Q461.3536,271.045 461.9942,271.2012 Q462.6505,271.3575 463.213,271.6544 L463.213,274.3731 Q462.588,273.795 461.9942,273.5294 Q461.4005,273.2481 460.7755,273.2481 Q459.4317,273.2481 458.7442,274.3262 Q458.0567,275.3887 458.0567,277.4825 Q458.0567,279.5762 458.7442,280.6544 Q459.4317,281.7169 460.7755,281.7169 Q461.4005,281.7169 461.9942,281.4512 Q462.588,281.17 463.213,280.5919 L463.213,283.3106 Z " fill="#000000"/><text fill="#000000" font-family="sans-serif" font-size="14" lengthAdjust="spacing" textLength="45.1719" x="480.7442" y="282.5167">Rental</text><line style="stroke:#181818;stroke-width:0.5;" x1="345.17" x2="628.9903" y1="293.67" y2="293.67"/><rect fill="none" height="6" style="stroke:#C82930;stroke-width:1;" width="6" x="352.17" y="304.3184"/><text fill="#000000" font-family="sans-serif" font-size="14" lengthAdjust="spacing" textLength="93.5908" x="364.17" y="310.6651">Movie movie;</text><rect fill="none" height="6" style="stroke:#C82930;stroke-width:1;" width="6" x="352.17" y="320.6153"/><text fill="#000000" font-family="sans-serif" font-size="14" lengthAdjust="spacing" textLength="110.667" x="364.17" y="326.962">int daysRented;</text><line style="stroke:#181818;stroke-width:0.5;" x1="345.17" x2="628.9903" y1="334.2637" y2="334.2637"/><ellipse cx="355.17" cy="347.9122" fill="#84BE84" rx="3" ry="3" style="stroke:#038048;stroke-width:1;"/><text fill="#000000" font-family="sans-serif" font-size="14" lengthAdjust="spacing" textLength="259.8203" x="364.17" y="351.2589">Rental(Movie movie, int daysRented)</text><ellipse cx="355.17" cy="364.2091" fill="#84BE84" rx="3" ry="3" style="stroke:#038048;stroke-width:1;"/><text fill="#000000" font-family="sans-serif" font-size="14" lengthAdjust="spacing" textLength="141.7568" x="364.17" y="367.5557">int getDaysRented()</text><ellipse cx="355.17" cy="380.5059" fill="#84BE84" rx="3" ry="3" style="stroke:#038048;stroke-width:1;"/><text fill="#000000" font-family="sans-serif" font-size="14" lengthAdjust="spacing" textLength="121.2285" x="364.17" y="383.8526">Movie getMovie()</text><ellipse cx="355.17" cy="396.8028" fill="#84BE84" rx="3" ry="3" style="stroke:#038048;stroke-width:1;"/><text fill="#000000" font-family="sans-serif" font-size="14" lengthAdjust="spacing" textLength="136.5615" x="364.17" y="400.1495">double getCharge()</text><ellipse cx="355.17" cy="413.0997" fill="#84BE84" rx="3" ry="3" style="stroke:#038048;stroke-width:1;"/><text fill="#000000" font-family="sans-serif" font-size="14" lengthAdjust="spacing" textLength="209.3984" x="364.17" y="416.4464">int getFrequentRenterPoints()</text></g><!--class Movie--><g class="entity" data-entity="Movie" data-source-line="23" data-uid="ent0004" id="entity_Movie"><rect fill="#F1F1F1" height="210.9688" rx="2.5" ry="2.5" style="stroke:#181818;stroke-width:0.5;" width="341.3486" x="316.4" y="483.75"/><ellipse cx="462.108" cy="499.75" fill="#ADD1B2" rx="11" ry="11" style="stroke:#181818;stroke-width:1;"/><path d="M465.0768,505.3906 Q464.4986,505.6875 463.858,505.8281 Q463.2174,505.9844 462.5143,505.9844 Q460.0143,505.9844 458.6861,504.3437 Q457.3736,502.6875 457.3736,499.5625 Q457.3736,496.4375 458.6861,494.7812 Q460.0143,493.125 462.5143,493.125 Q463.2174,493.125 463.858,493.2812 Q464.5143,493.4375 465.0768,493.7344 L465.0768,496.4531 Q464.4518,495.875 463.858,495.6094 Q463.2643,495.3281 462.6393,495.3281 Q461.2955,495.3281 460.608,496.4062 Q459.9205,497.4687 459.9205,499.5625 Q459.9205,501.6562 460.608,502.7344 Q461.2955,503.7969 462.6393,503.7969 Q463.2643,503.7969 463.858,503.5312 Q464.4518,503.25 465.0768,502.6719 L465.0768,505.3906 Z " fill="#000000"/><text fill="#000000" font-family="sans-serif" font-size="14" lengthAdjust="spacing" textLength="41.4326" x="482.608" y="504.5967">Movie</text><line style="stroke:#181818;stroke-width:0.5;" x1="317.4" x2="656.7486" y1="515.75" y2="515.75"/><ellipse cx="327.4" cy="529.3984" fill="none" rx="3" ry="3" style="stroke:#038048;stroke-width:1;"/><text fill="#000000" font-family="sans-serif" font-size="14" lengthAdjust="spacing" textLength="201.2295" x="336.4" y="532.7451">static final int REGULAR = 0;</text><ellipse cx="327.4" cy="545.6953" fill="none" rx="3" ry="3" style="stroke:#038048;stroke-width:1;"/><text fill="#000000" font-family="sans-serif" font-size="14" lengthAdjust="spacing" textLength="237.1455" x="336.4" y="549.042">static final int NEW_RELEASE = 1;</text><ellipse cx="327.4" cy="561.9922" fill="none" rx="3" ry="3" style="stroke:#038048;stroke-width:1;"/><text fill="#000000" font-family="sans-serif" font-size="14" lengthAdjust="spacing" textLength="215.4004" x="336.4" y="565.3389">static final int CHILDRENS = 2;</text><rect fill="none" height="6" style="stroke:#C82930;stroke-width:1;" width="6" x="324.4" y="575.2891"/><text fill="#000000" font-family="sans-serif" font-size="14" lengthAdjust="spacing" textLength="78.3193" x="336.4" y="581.6357">String title;</text><rect fill="none" height="6" style="stroke:#C82930;stroke-width:1;" width="6" x="324.4" y="591.5859"/><text fill="#000000" font-family="sans-serif" font-size="14" lengthAdjust="spacing" textLength="78.4082" x="336.4" y="597.9326">Price price;</text><line style="stroke:#181818;stroke-width:0.5;" x1="317.4" x2="656.7486" y1="605.2344" y2="605.2344"/><ellipse cx="327.4" cy="618.8828" fill="#84BE84" rx="3" ry="3" style="stroke:#038048;stroke-width:1;"/><text fill="#000000" font-family="sans-serif" font-size="14" lengthAdjust="spacing" textLength="228.2451" x="336.4" y="622.2295">Movie(String title, int priceCode)</text><ellipse cx="327.4" cy="635.1797" fill="#84BE84" rx="3" ry="3" style="stroke:#038048;stroke-width:1;"/><text fill="#000000" font-family="sans-serif" font-size="14" lengthAdjust="spacing" textLength="242.5117" x="336.4" y="638.5264">double getCharge(int daysRented)</text><ellipse cx="327.4" cy="651.4766" fill="#84BE84" rx="3" ry="3" style="stroke:#038048;stroke-width:1;"/><text fill="#000000" font-family="sans-serif" font-size="14" lengthAdjust="spacing" textLength="315.3486" x="336.4" y="654.8232">int getFrequentRenterPoints(int daysRented)</text><ellipse cx="327.4" cy="667.7734" fill="#84BE84" rx="3" ry="3" style="stroke:#038048;stroke-width:1;"/><text fill="#000000" font-family="sans-serif" font-size="14" lengthAdjust="spacing" textLength="230.0225" x="336.4" y="671.1201">void setPriceCode(int priceCode)</text><ellipse cx="327.4" cy="684.0703" fill="#84BE84" rx="3" ry="3" style="stroke:#038048;stroke-width:1;"/><text fill="#000000" font-family="sans-serif" font-size="14" lengthAdjust="spacing" textLength="110.5781" x="336.4" y="687.417">String getTitle()</text></g><!--class Price--><g class="entity" data-entity="Price" data-source-line="36" data-uid="ent0005" id="entity_Price"><rect fill="#F1F1F1" height="96.8906" rx="2.5" ry="2.5" style="stroke:#181818;stroke-width:0.5;" width="341.3486" x="316.4" y="754.72"/><ellipse cx="465.6251" cy="770.72" fill="#ADD1B2" rx="11" ry="11" style="stroke:#181818;stroke-width:1;"/><path d="M468.5938,776.3606 Q468.0157,776.6575 467.3751,776.7981 Q466.7345,776.9544 466.0313,776.9544 Q463.5313,776.9544 462.2032,775.3137 Q460.8907,773.6575 460.8907,770.5325 Q460.8907,767.4075 462.2032,765.7512 Q463.5313,764.095 466.0313,764.095 Q466.7345,764.095 467.3751,764.2512 Q468.0313,764.4075 468.5938,764.7044 L468.5938,767.4231 Q467.9688,766.845 467.3751,766.5794 Q466.7813,766.2981 466.1563,766.2981 Q464.8126,766.2981 464.1251,767.3762 Q463.4376,768.4387 463.4376,770.5325 Q463.4376,772.6262 464.1251,773.7044 Q464.8126,774.7669 466.1563,774.7669 Q466.7813,774.7669 467.3751,774.5012 Q467.9688,774.22 468.5938,773.6419 L468.5938,776.3606 Z " fill="#000000"/><text fill="#000000" font-family="sans-serif" font-size="14" lengthAdjust="spacing" textLength="34.3984" x="486.1251" y="775.5667">Price</text><line style="stroke:#181818;stroke-width:0.5;" x1="317.4" x2="656.7486" y1="786.72" y2="786.72"/><line style="stroke:#181818;stroke-width:0.5;" x1="317.4" x2="656.7486" y1="794.72" y2="794.72"/><ellipse cx="327.4" cy="808.3684" fill="#84BE84" rx="3" ry="3" style="stroke:#038048;stroke-width:1;"/><text fill="#000000" font-family="sans-serif" font-size="14" lengthAdjust="spacing" textLength="126.8545" x="336.4" y="811.7151">int getPriceCode()</text><ellipse cx="327.4" cy="824.6653" fill="#84BE84" rx="3" ry="3" style="stroke:#038048;stroke-width:1;"/><text fill="#000000" font-family="sans-serif" font-size="14" lengthAdjust="spacing" textLength="242.5117" x="336.4" y="828.012">double getCharge(int daysRented)</text><ellipse cx="327.4" cy="840.9622" fill="#84BE84" rx="3" ry="3" style="stroke:#038048;stroke-width:1;"/><text fill="#000000" font-family="sans-serif" font-size="14" lengthAdjust="spacing" textLength="315.3486" x="336.4" y="844.3089">int getFrequentRenterPoints(int daysRented)</text></g><!--class RegularPrice--><g class="entity" data-entity="RegularPrice" data-source-line="41" data-uid="ent0006" id="entity_RegularPrice"><rect fill="#F1F1F1" height="113.1875" rx="2.5" ry="2.5" style="stroke:#181818;stroke-width:0.5;" width="308.1533" x="7" y="919.75"/><ellipse cx="112.4648" cy="935.75" fill="#ADD1B2" rx="11" ry="11" style="stroke:#181818;stroke-width:1;"/><path d="M115.4336,941.3906 Q114.8555,941.6875 114.2148,941.8281 Q113.5742,941.9844 112.8711,941.9844 Q110.3711,941.9844 109.043,940.3437 Q107.7305,938.6875 107.7305,935.5625 Q107.7305,932.4375 109.043,930.7812 Q110.3711,929.125 112.8711,929.125 Q113.5742,929.125 114.2148,929.2812 Q114.8711,929.4375 115.4336,929.7344 L115.4336,932.4531 Q114.8086,931.875 114.2148,931.6094 Q113.6211,931.3281 112.9961,931.3281 Q111.6523,931.3281 110.9648,932.4062 Q110.2773,933.4687 110.2773,935.5625 Q110.2773,937.6562 110.9648,938.7344 Q111.6523,939.7969 112.9961,939.7969 Q113.6211,939.7969 114.2148,939.5312 Q114.8086,939.25 115.4336,938.6719 L115.4336,941.3906 Z " fill="#000000"/><text fill="#000000" font-family="sans-serif" font-size="14" lengthAdjust="spacing" textLength="88.7236" x="132.9648" y="940.5967">RegularPrice</text><line style="stroke:#181818;stroke-width:0.5;" x1="8" x2="314.1533" y1="951.75" y2="951.75"/><rect fill="none" height="6" style="stroke:#C82930;stroke-width:1;" width="6" x="15" y="962.3984"/><text fill="#000000" font-family="sans-serif" font-size="14" lengthAdjust="spacing" text-decoration="underline" textLength="159.0791" x="27" y="968.7451">double CHARGE = 2.0;</text><rect fill="none" height="6" style="stroke:#C82930;stroke-width:1;" width="6" x="15" y="978.6953"/><text fill="#000000" font-family="sans-serif" font-size="14" lengthAdjust="spacing" text-decoration="underline" textLength="209.8223" x="27" y="985.042">double EXTRA CHARGE = 1.5;</text><rect fill="none" height="6" style="stroke:#C82930;stroke-width:1;" width="6" x="15" y="994.9922"/><text fill="#000000" font-family="sans-serif" font-size="14" lengthAdjust="spacing" text-decoration="underline" textLength="282.1533" x="27" y="1001.3389">final int DAYS RENTED THRESHOLD = 2;</text><line style="stroke:#181818;stroke-width:0.5;" x1="8" x2="314.1533" y1="1008.6406" y2="1008.6406"/><ellipse cx="18" cy="1022.2891" fill="#84BE84" rx="3" ry="3" style="stroke:#038048;stroke-width:1;"/><text fill="#000000" font-family="sans-serif" font-size="14" lengthAdjust="spacing" textLength="242.5117" x="27" y="1025.6357">double getCharge(int daysRented)</text></g><!--class ChildrenPrice--><g class="entity" data-entity="ChildrenPrice" data-source-line="47" data-uid="ent0007" id="entity_ChildrenPrice"><rect fill="#F1F1F1" height="113.1875" rx="2.5" ry="2.5" style="stroke:#181818;stroke-width:0.5;" width="273.543" x="350.31" y="919.75"/><ellipse cx="436.3539" cy="935.75" fill="#ADD1B2" rx="11" ry="11" style="stroke:#181818;stroke-width:1;"/><path d="M439.3227,941.3906 Q438.7446,941.6875 438.1039,941.8281 Q437.4633,941.9844 436.7602,941.9844 Q434.2602,941.9844 432.9321,940.3437 Q431.6196,938.6875 431.6196,935.5625 Q431.6196,932.4375 432.9321,930.7812 Q434.2602,929.125 436.7602,929.125 Q437.4633,929.125 438.1039,929.2812 Q438.7602,929.4375 439.3227,929.7344 L439.3227,932.4531 Q438.6977,931.875 438.1039,931.6094 Q437.5102,931.3281 436.8852,931.3281 Q435.5414,931.3281 434.8539,932.4062 Q434.1664,933.4687 434.1664,935.5625 Q434.1664,937.6562 434.8539,938.7344 Q435.5414,939.7969 436.8852,939.7969 Q437.5102,939.7969 438.1039,939.5312 Q438.6977,939.25 439.3227,938.6719 L439.3227,941.3906 Z " fill="#000000"/><text fill="#000000" font-family="sans-serif" font-size="14" lengthAdjust="spacing" textLength="92.9551" x="456.8539" y="940.5967">ChildrenPrice</text><line style="stroke:#181818;stroke-width:0.5;" x1="351.31" x2="622.853" y1="951.75" y2="951.75"/><rect fill="none" height="6" style="stroke:#C82930;stroke-width:1;" width="6" x="358.31" y="962.3984"/><text fill="#000000" font-family="sans-serif" font-size="14" lengthAdjust="spacing" text-decoration="underline" textLength="159.0791" x="370.31" y="968.7451">double CHARGE = 1.5;</text><rect fill="none" height="6" style="stroke:#C82930;stroke-width:1;" width="6" x="358.31" y="978.6953"/><text fill="#000000" font-family="sans-serif" font-size="14" lengthAdjust="spacing" text-decoration="underline" textLength="209.8223" x="370.31" y="985.042">double EXTRA CHARGE = 1.5;</text><rect fill="none" height="6" style="stroke:#C82930;stroke-width:1;" width="6" x="358.31" y="994.9922"/><text fill="#000000" font-family="sans-serif" font-size="14" lengthAdjust="spacing" text-decoration="underline" textLength="247.543" x="370.31" y="1001.3389">int DAYS RENTED THRESHOLD = 3;</text><line style="stroke:#181818;stroke-width:0.5;" x1="351.31" x2="622.853" y1="1008.6406" y2="1008.6406"/><ellipse cx="361.31" cy="1022.2891" fill="#84BE84" rx="3" ry="3" style="stroke:#038048;stroke-width:1;"/><text fill="#000000" font-family="sans-serif" font-size="14" lengthAdjust="spacing" textLength="242.5117" x="370.31" y="1025.6357">double getCharge(int daysRented)</text></g><!--class NewReleasePrice--><g class="entity" data-entity="NewReleasePrice" data-source-line="53" data-uid="ent0008" id="entity_NewReleasePrice"><rect fill="#F1F1F1" height="129.4844" rx="2.5" ry="2.5" style="stroke:#181818;stroke-width:0.5;" width="341.3486" x="658.4" y="911.61"/><ellipse cx="764.692" cy="927.61" fill="#ADD1B2" rx="11" ry="11" style="stroke:#181818;stroke-width:1;"/><path d="M767.6607,933.2506 Q767.0826,933.5475 766.442,933.6881 Q765.8014,933.8444 765.0982,933.8444 Q762.5982,933.8444 761.2701,932.2037 Q759.9576,930.5475 759.9576,927.4225 Q759.9576,924.2975 761.2701,922.6412 Q762.5982,920.985 765.0982,920.985 Q765.8014,920.985 766.442,921.1412 Q767.0982,921.2975 767.6607,921.5944 L767.6607,924.3131 Q767.0357,923.735 766.442,923.4694 Q765.8482,923.1881 765.2232,923.1881 Q763.8795,923.1881 763.192,924.2662 Q762.5045,925.3287 762.5045,927.4225 Q762.5045,929.5162 763.192,930.5944 Q763.8795,931.6569 765.2232,931.6569 Q765.8482,931.6569 766.442,931.3912 Q767.0357,931.11 767.6607,930.5319 L767.6607,933.2506 Z " fill="#000000"/><text fill="#000000" font-family="sans-serif" font-size="14" lengthAdjust="spacing" textLength="120.2646" x="785.192" y="932.4567">NewReleasePrice</text><line style="stroke:#181818;stroke-width:0.5;" x1="659.4" x2="998.7486" y1="943.61" y2="943.61"/><rect fill="none" height="6" style="stroke:#C82930;stroke-width:1;" width="6" x="666.4" y="954.2584"/><text fill="#000000" font-family="sans-serif" font-size="14" lengthAdjust="spacing" text-decoration="underline" textLength="145.7217" x="678.4" y="960.6051">double CHARGE = 3;</text><rect fill="none" height="6" style="stroke:#C82930;stroke-width:1;" width="6" x="666.4" y="970.5553"/><text fill="#000000" font-family="sans-serif" font-size="14" lengthAdjust="spacing" text-decoration="underline" textLength="196.4648" x="678.4" y="976.902">double EXTRA CHARGE = 1;</text><rect fill="none" height="6" style="stroke:#C82930;stroke-width:1;" width="6" x="666.4" y="986.8522"/><text fill="#000000" font-family="sans-serif" font-size="14" lengthAdjust="spacing" text-decoration="underline" textLength="247.543" x="678.4" y="993.1989">int DAYS RENTED THRESHOLD = 2;</text><line style="stroke:#181818;stroke-width:0.5;" x1="659.4" x2="998.7486" y1="1000.5006" y2="1000.5006"/><ellipse cx="669.4" cy="1014.1491" fill="#84BE84" rx="3" ry="3" style="stroke:#038048;stroke-width:1;"/><text fill="#000000" font-family="sans-serif" font-size="14" lengthAdjust="spacing" textLength="242.5117" x="678.4" y="1017.4957">double getCharge(int daysRented)</text><ellipse cx="669.4" cy="1030.4459" fill="#84BE84" rx="3" ry="3" style="stroke:#038048;stroke-width:1;"/><text fill="#000000" font-family="sans-serif" font-size="14" lengthAdjust="spacing" textLength="315.3486" x="678.4" y="1033.7926">int getFrequentRenterPoints(int daysRented)</text></g><!--link Customer to Rental--><g class="link" data-entity-1="Customer" data-entity-2="Rental" data-source-line="61" data-uid="lnk9" id="link_Customer_Rental"><path codeLine="61" d="M487.08,214.16 C487.08,233.79 487.08,236.24 487.08,255.24" fill="none" id="Customer-Rental" style="stroke:#181818;stroke-width:1;"/><polygon fill="none" points="487.08,202.16,483.08,208.16,487.08,214.16,491.08,208.16,487.08,202.16" style="stroke:#181818;stroke-width:1;"/><polygon fill="#181818" points="487.08,261.24,491.08,252.24,487.08,256.24,483.08,252.24,487.08,261.24" style="stroke:#181818;stroke-width:1;"/></g><!--link Rental to Movie--><g class="link" data-entity-1="Rental" data-entity-2="Movie" data-source-line="62" data-uid="lnk10" id="link_Rental_Movie"><path codeLine="62" d="M487.08,424.11 C487.08,443.04 487.08,457.5 487.08,477.33" fill="none" id="Rental-to-Movie" style="stroke:#181818;stroke-width:1;"/><polygon fill="#181818" points="487.08,483.33,491.08,474.33,487.08,478.33,483.08,474.33,487.08,483.33" style="stroke:#181818;stroke-width:1;"/></g><!--reverse link Movie to Price--><g class="link" data-entity-1="Movie" data-entity-2="Price" data-source-line="63" data-uid="lnk11" id="link_Movie_Price"><path codeLine="63" d="M487.08,706.95 C487.08,727.71 487.08,736.52 487.08,754.22" fill="none" id="Movie-backto-Price" style="stroke:#181818;stroke-width:1;"/><polygon fill="#181818" points="487.08,694.95,483.08,700.95,487.08,706.95,491.08,700.95,487.08,694.95" style="stroke:#181818;stroke-width:1;"/></g><!--reverse link Price to RegularPrice--><g class="link" data-entity-1="Price" data-entity-2="RegularPrice" data-source-line="64" data-uid="lnk12" id="link_Price_RegularPrice"><path codeLine="64" d="M379.8939,860.4391 C340.1539,881.3091 309.23,897.55 267.88,919.27" fill="none" id="Price-backto-RegularPrice" style="stroke:#181818;stroke-width:1;"/><polygon fill="none" points="395.83,852.07,377.1042,855.127,382.6836,865.7511,395.83,852.07" style="stroke:#181818;stroke-width:1;"/></g><!--reverse link Price to ChildrenPrice--><g class="link" data-entity-1="Price" data-entity-2="ChildrenPrice" data-source-line="65" data-uid="lnk13" id="link_Price_ChildrenPrice"><path codeLine="65" d="M487.08,869.85 C487.08,890.82 487.08,897.6 487.08,919.44" fill="none" id="Price-backto-ChildrenPrice" style="stroke:#181818;stroke-width:1;"/><polygon fill="none" points="487.08,851.85,481.08,869.85,493.08,869.85,487.08,851.85" style="stroke:#181818;stroke-width:1;"/></g><!--reverse link Price to NewReleasePrice--><g class="link" data-entity-1="Price" data-entity-2="NewReleasePrice" data-source-line="66" data-uid="lnk14" id="link_Price_NewReleasePrice"><path codeLine="66" d="M598.8962,860.1269 C635.4562,878.4269 661.65,891.54 700.76,911.12" fill="none" id="Price-backto-NewReleasePrice" style="stroke:#181818;stroke-width:1;"/><polygon fill="none" points="582.8,852.07,596.2105,865.4923,601.5818,854.7615,582.8,852.07" style="stroke:#181818;stroke-width:1;"/></g><!--SRC=[jLHDRzGm4BtdL_YO0blHLfnIAaM9wLOAOUK40ITarkxMKZQ6s6c5bltlZ3_oGNPXqmENP7VcFSzxCnElAweKIbgbvPOtQ1SiKA4RKMzGJRSyWh-PKFgQy5hJwWOrzgsYu2LAfD8jSC8H_Wn1ub4AXYXZZXEwbsUUGTxZDrpdG0b78QMfvbi0Gh3NuOXtzRsqKIRRRnKtx592F7cWpORRZAXr7txNy1yj44rntgmav1I0za6mjeQzA6FtlNmK76tDC_AdCFfJMIOpHhsF4UxL16Ki-Eff7xJ670dYzeSD3GPwxJtxb6ntt0u8fbLYZUv53JOCc-3RZrbCq5lqEZgMp_6dhmHdE2umO2wEOfBbNPOId1U0k8o64MYXAzkSLIFM77qtpwXp5uv1hZCMa4Z6Z_hzQ- -EkZz4s_rINA-wAk51pM75IgDgt49dOJTK7Oxv3sht_RvjseesNV6TQ_s-N-Ta6PDRCvZBSnZVGHf_BaayW2xEtun1mm3J-4i1cv2NE4Nbak1Y-I5BtJ1dMEl49W-YOl3PdLOx4J9BxRzqNZrBPywV2AyuLVoqqgiPEkUgdDVDvovAq5_2Si7aKxsuyJTFu2-hBcg_ki1T1IzSq6rruDfm_Si7nqitpVqnusboqjZV]--></g></svg>