<svg xmlns="http://www.w3.org/2000/svg" xmlns:xlink="http://www.w3.org/1999/xlink" contentStyleType="text/css" data-diagram-type="CLASS" height="1064px" preserveAspectRatio="none" style="width:1006px;height:1064px;background:#FFFFFF;" version="1.1" viewBox="0 0 1006 1064" width="1006px" zoomAndPan="magnify"><defs/><g><!--class Customer--><g class="entity" data-entity="Customer" data-source-line="1" data-uid="ent0002" id="entity_Customer"><rect fill="#F1F1F1" height="194.6719" rx="2.5" ry="2.5" style="stroke:#181818;stroke-width:0.5;" width="270.4736" x="351.84" y="7"/><ellipse cx="448.8249" cy="23" fill="#ADD1B2" rx="11" ry="11" style="stroke:#181818;stroke-width:1;"/><path d="M451.7936,28.6406 Q451.2155,28.9375 450.5749,29.0781 Q449.9342,29.2344 449.2311,29.2344 Q446.7311,29.2344 445.403,27.5938 Q444.0905,25.9375 444.0905,22.8125 Q444.0905,19.6875 445.403,18.0313 Q446.7311,16.375 449.2311,16.375 Q449.9342,16.375 450.5749,16.5313 Q451.2311,16.6875 451.7936,16.9844 L451.7936,19.7031 Q451.1686,19.125 450.5749,18.8594 Q449.9811,18.5781 449.3561,18.5781 Q448.0124,18.5781 447.3249,19.6563 Q446.6374,20.7188 446.6374,22.8125 Q446.6374,24.9063 447.3249,25.9844 Q448.0124,27.0469 449.3561,27.0469 Q449.9811,27.0469 450.5749,26.7813 Q451.1686,26.5 451.7936,25.9219 L451.7936,28.6406 Z " fill="#000000"/><text fill="#000000" font-family="sans-serif" font-size="14" lengthAdjust="spacing" textLength="68.0039" x="469.3249" y="27.8467">Customer</text><line style="stroke:#181818;stroke-width:0.5;" x1="352.84" x2="621.3136" y1="39" y2="39"/><rect fill="none" height="6" style="stroke:#C82930;stroke-width:1;" width="6" x="359.84" y="49.6484"/><text fill="#000000" font-family="sans-serif" font-size="14" lengthAdjust="spacing" textLength="90.6514" x="371.84" y="55.9951">String name;</text><rect fill="none" height="6" style="stroke:#C82930;stroke-width:1;" width="6" x="359.84" y="65.9453"/><text fill="#000000" font-family="sans-serif" font-size="14" lengthAdjust="spacing" textLength="150.7666" x="371.84" y="72.292">List&lt;Rental&gt; rentals;</text><line style="stroke:#181818;stroke-width:0.5;" x1="352.84" x2="621.3136" y1="79.5938" y2="79.5938"/><ellipse cx="362.84" cy="93.2422" fill="#84BE84" rx="3" ry="3" style="stroke:#038048;stroke-width:1;"/><text fill="#000000" font-family="sans-serif" font-size="14" lengthAdjust="spacing" textLength="164.8623" x="371.84" y="96.5889">Costumer(String name)</text><ellipse cx="362.84" cy="109.5391" fill="#84BE84" rx="3" ry="3" style="stroke:#038048;stroke-width:1;"/><text fill="#000000" font-family="sans-serif" font-size="14" lengthAdjust="spacing" textLength="207.3477" x="371.84" y="112.8857">void addRental(Rental rental)</text><ellipse cx="362.84" cy="125.8359" fill="#84BE84" rx="3" ry="3" style="stroke:#038048;stroke-width:1;"/><text fill="#000000" font-family="sans-serif" font-size="14" lengthAdjust="spacing" textLength="121.4473" x="371.84" y="129.1826">String getName()</text><ellipse cx="362.84" cy="142.1328" fill="#84BE84" rx="3" ry="3" style="stroke:#038048;stroke-width:1;"/><text fill="#000000" font-family="sans-serif" font-size="14" lengthAdjust="spacing" textLength="129.2334" x="371.84" y="145.4795">String statement()</text><rect fill="#F24D5C" height="6" style="stroke:#C82930;stroke-width:1;" width="6" x="359.84" y="155.4297"/><text fill="#000000" font-family="sans-serif" font-size="14" lengthAdjust="spacing" textLength="124.8516" x="371.84" y="161.7764">String rentalInfo()</text><rect fill="#F24D5C" height="6" style="stroke:#C82930;stroke-width:1;" width="6" x="359.84" y="171.7266"/><text fill="#000000" font-family="sans-serif" font-size="14" lengthAdjust="spacing" textLength="171.6367" x="371.84" y="178.0732">double getTotalCharge()</text><rect fill="#F24D5C" height="6" style="stroke:#C82930;stroke-width:1;" width="6" x="359.84" y="188.0234"/><text fill="#000000" font-family="sans-serif" font-size="14" lengthAdjust="spacing" textLength="244.4736" x="371.84" y="194.3701">int getTotalFrequentRenterPoints()</text></g><!--class Rental--><g class="entity" data-entity="Rental" data-source-line="13" data-uid="ent0003" id="entity_Rental"><rect fill="#F1F1F1" height="178.375" rx="2.5" ry="2.5" style="stroke:#181818;stroke-width:0.5;" width="285.8203" x="344.17" y="261.67"/><ellipse cx="460.2442" cy="277.67" fill="#ADD1B2" rx="11" ry="11" style="stroke:#181818;stroke-width:1;"/><path d="M463.213,283.3106 Q462.6348,283.6075 461.9942,283.7481 Q461.3536,283.9044 460.6505,283.9044 Q458.1505,283.9044 456.8223,282.2638 Q455.5098,280.6075 455.5098,277.4825 Q455.5098,274.3575 456.8223,272.7013 Q458.1505,271.045 460.6505,271.045 Q461.3536,271.045 461.9942,271.2013 Q462.6505,271.3575 463.213,271.6544 L463.213,274.3731 Q462.588,273.795 461.9942,273.5294 Q461.4005,273.2481 460.7755,273.2481 Q459.4317,273.2481 458.7442,274.3263 Q458.0567,275.3888 458.0567,277.4825 Q458.0567,279.5763 458.7442,280.6544 Q459.4317,281.7169 460.7755,281.7169 Q461.4005,281.7169 461.9942,281.4513 Q462.588,281.17 463.213,280.5919 L463.213,283.3106 Z " fill="#000000"/><text fill="#000000" font-family="sans-serif" font-size="14" lengthAdjust="spacing" textLength="45.1719" x="480.7442" y="282.5167">Rental</text><line style="stroke:#181818;stroke-width:0.5;" x1="345.17" x2="628.9903" y1="293.67" y2="293.67"/><rect fill="none" height="6" style="stroke:#C82930;stroke-width:1;" width="6" x="352.17" y="304.3184"/><text fill="#000000" font-family="sans-serif" font-size="14" lengthAdjust="spacing" textLength="93.5908" x="364.17" y="310.6651">Movie movie;</text><rect fill="none" height="6" style="stroke:#C82930;stroke-width:1;" width="6" x="352.17" y="320.6153"/><text fill="#000000" font-family="sans-serif" font-size="14" lengthAdjust="spacing" textLength="110.667" x="364.17" y="326.962">int daysRented;</text><line style="stroke:#181818;stroke-width:0.5;" x1="345.17" x2="628.9903" y1="334.2638" y2="334.2638"/><ellipse cx="355.17" cy="347.9122" fill="#84BE84" rx="3" ry="3" style="stroke:#038048;stroke-width:1;"/><text fill="#000000" font-family="sans-serif" font-size="14" lengthAdjust="spacing" textLength="259.8203" x="364.17" y="351.2589">Rental(Movie movie, int daysRented)</text><ellipse cx="355.17" cy="364.2091" fill="#84BE84" rx="3" ry="3" style="stroke:#038048;stroke-width:1;"/><text fill="#000000" font-family="sans-serif" font-size="14" lengthAdjust="spacing" textLength="141.7568" x="364.17" y="367.5557">int getDaysRented()</text><ellipse cx="355.17" cy="380.5059" fill="#84BE84" rx="3" ry="3" style="stroke:#038048;stroke-width:1;"/><text fill="#000000" font-family="sans-serif" font-size="14" lengthAdjust="spacing" textLength="121.2285" x="364.17" y="383.8526">Movie getMovie()</text><ellipse cx="355.17" cy="396.8028" fill="#84BE84" rx="3" ry="3" style="stroke:#038048;stroke-width:1;"/><text fill="#000000" font-family="sans-serif" font-size="14" lengthAdjust="spacing" textLength="110.5781" x="364.17" y="400.1495">String getTitle()</text><ellipse cx="355.17" cy="413.0997" fill="#84BE84" rx="3" ry="3" style="stroke:#038048;stroke-width:1;"/><text fill="#000000" font-family="sans-serif" font-size="14" lengthAdjust="spacing" textLength="136.5615" x="364.17" y="416.4464">double getCharge()</text><ellipse cx="355.17" cy="429.3966" fill="#84BE84" rx="3" ry="3" style="stroke:#038048;stroke-width:1;"/><text fill="#000000" font-family="sans-serif" font-size="14" lengthAdjust="spacing" textLength="209.3984" x="364.17" y="432.7432">int getFrequentRenterPoints()</text></g><!--class Movie--><g class="entity" data-entity="Movie" data-source-line="24" data-uid="ent0004" id="entity_Movie"><rect fill="#F1F1F1" height="210.9688" rx="2.5" ry="2.5" style="stroke:#181818;stroke-width:0.5;" width="341.3486" x="316.4" y="500.05"/><ellipse cx="462.108" cy="516.05" fill="#ADD1B2" rx="11" ry="11" style="stroke:#181818;stroke-width:1;"/><path d="M465.0768,521.6906 Q464.4986,521.9875 463.858,522.1281 Q463.2174,522.2844 462.5143,522.2844 Q460.0143,522.2844 458.6861,520.6438 Q457.3736,518.9875 457.3736,515.8625 Q457.3736,512.7375 458.6861,511.0813 Q460.0143,509.425 462.5143,509.425 Q463.2174,509.425 463.858,509.5813 Q464.5143,509.7375 465.0768,510.0344 L465.0768,512.7531 Q464.4518,512.175 463.858,511.9094 Q463.2643,511.6281 462.6393,511.6281 Q461.2955,511.6281 460.608,512.7063 Q459.9205,513.7688 459.9205,515.8625 Q459.9205,517.9563 460.608,519.0344 Q461.2955,520.0969 462.6393,520.0969 Q463.2643,520.0969 463.858,519.8313 Q464.4518,519.55 465.0768,518.9719 L465.0768,521.6906 Z " fill="#000000"/><text fill="#000000" font-family="sans-serif" font-size="14" lengthAdjust="spacing" textLength="41.4326" x="482.608" y="520.8967">Movie</text><line style="stroke:#181818;stroke-width:0.5;" x1="317.4" x2="656.7486" y1="532.05" y2="532.05"/><ellipse cx="327.4" cy="545.6984" fill="none" rx="3" ry="3" style="stroke:#038048;stroke-width:1;"/><text fill="#000000" font-family="sans-serif" font-size="14" lengthAdjust="spacing" textLength="201.2295" x="336.4" y="549.0451">static final int REGULAR = 0;</text><ellipse cx="327.4" cy="561.9953" fill="none" rx="3" ry="3" style="stroke:#038048;stroke-width:1;"/><text fill="#000000" font-family="sans-serif" font-size="14" lengthAdjust="spacing" textLength="237.1455" x="336.4" y="565.342">static final int NEW_RELEASE = 1;</text><ellipse cx="327.4" cy="578.2922" fill="none" rx="3" ry="3" style="stroke:#038048;stroke-width:1;"/><text fill="#000000" font-family="sans-serif" font-size="14" lengthAdjust="spacing" textLength="215.4004" x="336.4" y="581.6389">static final int CHILDRENS = 2;</text><rect fill="none" height="6" style="stroke:#C82930;stroke-width:1;" width="6" x="324.4" y="591.5891"/><text fill="#000000" font-family="sans-serif" font-size="14" lengthAdjust="spacing" textLength="78.3193" x="336.4" y="597.9357">String title;</text><rect fill="none" height="6" style="stroke:#C82930;stroke-width:1;" width="6" x="324.4" y="607.8859"/><text fill="#000000" font-family="sans-serif" font-size="14" lengthAdjust="spacing" textLength="78.4082" x="336.4" y="614.2326">Price price;</text><line style="stroke:#181818;stroke-width:0.5;" x1="317.4" x2="656.7486" y1="621.5344" y2="621.5344"/><ellipse cx="327.4" cy="635.1828" fill="#84BE84" rx="3" ry="3" style="stroke:#038048;stroke-width:1;"/><text fill="#000000" font-family="sans-serif" font-size="14" lengthAdjust="spacing" textLength="228.2451" x="336.4" y="638.5295">Movie(String title, int priceCode)</text><ellipse cx="327.4" cy="651.4797" fill="#84BE84" rx="3" ry="3" style="stroke:#038048;stroke-width:1;"/><text fill="#000000" font-family="sans-serif" font-size="14" lengthAdjust="spacing" textLength="242.5117" x="336.4" y="654.8264">double getCharge(int daysRented)</text><ellipse cx="327.4" cy="667.7766" fill="#84BE84" rx="3" ry="3" style="stroke:#038048;stroke-width:1;"/><text fill="#000000" font-family="sans-serif" font-size="14" lengthAdjust="spacing" textLength="315.3486" x="336.4" y="671.1232">int getFrequentRenterPoints(int daysRented)</text><ellipse cx="327.4" cy="684.0734" fill="#84BE84" rx="3" ry="3" style="stroke:#038048;stroke-width:1;"/><text fill="#000000" font-family="sans-serif" font-size="14" lengthAdjust="spacing" textLength="230.0225" x="336.4" y="687.4201">void setPriceCode(int priceCode)</text><ellipse cx="327.4" cy="700.3703" fill="#84BE84" rx="3" ry="3" style="stroke:#038048;stroke-width:1;"/><text fill="#000000" font-family="sans-serif" font-size="14" lengthAdjust="spacing" textLength="110.5781" x="336.4" y="703.717">String getTitle()</text></g><!--class Price--><g class="entity" data-entity="Price" data-source-line="37" data-uid="ent0005" id="entity_Price"><rect fill="#F1F1F1" height="96.8906" rx="2.5" ry="2.5" style="stroke:#181818;stroke-width:0.5;" width="341.3486" x="316.4" y="771.02"/><ellipse cx="465.6251" cy="787.02" fill="#ADD1B2" rx="11" ry="11" style="stroke:#181818;stroke-width:1;"/><path d="M468.5938,792.6606 Q468.0157,792.9575 467.3751,793.0981 Q466.7345,793.2544 466.0313,793.2544 Q463.5313,793.2544 462.2032,791.6138 Q460.8907,789.9575 460.8907,786.8325 Q460.8907,783.7075 462.2032,782.0513 Q463.5313,780.395 466.0313,780.395 Q466.7345,780.395 467.3751,780.5513 Q468.0313,780.7075 468.5938,781.0044 L468.5938,783.7231 Q467.9688,783.145 467.3751,782.8794 Q466.7813,782.5981 466.1563,782.5981 Q464.8126,782.5981 464.1251,783.6763 Q463.4376,784.7388 463.4376,786.8325 Q463.4376,788.9263 464.1251,790.0044 Q464.8126,791.0669 466.1563,791.0669 Q466.7813,791.0669 467.3751,790.8013 Q467.9688,790.52 468.5938,789.9419 L468.5938,792.6606 Z " fill="#000000"/><text fill="#000000" font-family="sans-serif" font-size="14" lengthAdjust="spacing" textLength="34.3984" x="486.1251" y="791.8667">Price</text><line style="stroke:#181818;stroke-width:0.5;" x1="317.4" x2="656.7486" y1="803.02" y2="803.02"/><line style="stroke:#181818;stroke-width:0.5;" x1="317.4" x2="656.7486" y1="811.02" y2="811.02"/><ellipse cx="327.4" cy="824.6684" fill="#84BE84" rx="3" ry="3" style="stroke:#038048;stroke-width:1;"/><text fill="#000000" font-family="sans-serif" font-size="14" lengthAdjust="spacing" textLength="126.8545" x="336.4" y="828.0151">int getPriceCode()</text><ellipse cx="327.4" cy="840.9653" fill="#84BE84" rx="3" ry="3" style="stroke:#038048;stroke-width:1;"/><text fill="#000000" font-family="sans-serif" font-size="14" lengthAdjust="spacing" textLength="242.5117" x="336.4" y="844.312">double getCharge(int daysRented)</text><ellipse cx="327.4" cy="857.2622" fill="#84BE84" rx="3" ry="3" style="stroke:#038048;stroke-width:1;"/><text fill="#000000" font-family="sans-serif" font-size="14" lengthAdjust="spacing" textLength="315.3486" x="336.4" y="860.6089">int getFrequentRenterPoints(int daysRented)</text></g><!--class RegularPrice--><g class="entity" data-entity="RegularPrice" data-source-line="42" data-uid="ent0006" id="entity_RegularPrice"><rect fill="#F1F1F1" height="113.1875" rx="2.5" ry="2.5" style="stroke:#181818;stroke-width:0.5;" width="308.1533" x="7" y="936.05"/><ellipse cx="112.4648" cy="952.05" fill="#ADD1B2" rx="11" ry="11" style="stroke:#181818;stroke-width:1;"/><path d="M115.4336,957.6906 Q114.8555,957.9875 114.2148,958.1281 Q113.5742,958.2844 112.8711,958.2844 Q110.3711,958.2844 109.043,956.6438 Q107.7305,954.9875 107.7305,951.8625 Q107.7305,948.7375 109.043,947.0813 Q110.3711,945.425 112.8711,945.425 Q113.5742,945.425 114.2148,945.5813 Q114.8711,945.7375 115.4336,946.0344 L115.4336,948.7531 Q114.8086,948.175 114.2148,947.9094 Q113.6211,947.6281 112.9961,947.6281 Q111.6523,947.6281 110.9648,948.7063 Q110.2773,949.7688 110.2773,951.8625 Q110.2773,953.9563 110.9648,955.0344 Q111.6523,956.0969 112.9961,956.0969 Q113.6211,956.0969 114.2148,955.8313 Q114.8086,955.55 115.4336,954.9719 L115.4336,957.6906 Z " fill="#000000"/><text fill="#000000" font-family="sans-serif" font-size="14" lengthAdjust="spacing" textLength="88.7236" x="132.9648" y="956.8967">RegularPrice</text><line style="stroke:#181818;stroke-width:0.5;" x1="8" x2="314.1533" y1="968.05" y2="968.05"/><rect fill="none" height="6" style="stroke:#C82930;stroke-width:1;" width="6" x="15" y="978.6984"/><text fill="#000000" font-family="sans-serif" font-size="14" lengthAdjust="spacing" text-decoration="underline" textLength="159.0791" x="27" y="985.0451">double CHARGE = 2.0;</text><rect fill="none" height="6" style="stroke:#C82930;stroke-width:1;" width="6" x="15" y="994.9953"/><text fill="#000000" font-family="sans-serif" font-size="14" lengthAdjust="spacing" text-decoration="underline" textLength="209.8223" x="27" y="1001.342">double EXTRA CHARGE = 1.5;</text><rect fill="none" height="6" style="stroke:#C82930;stroke-width:1;" width="6" x="15" y="1011.2922"/><text fill="#000000" font-family="sans-serif" font-size="14" lengthAdjust="spacing" text-decoration="underline" textLength="282.1533" x="27" y="1017.6389">final int DAYS RENTED THRESHOLD = 2;</text><line style="stroke:#181818;stroke-width:0.5;" x1="8" x2="314.1533" y1="1024.9406" y2="1024.9406"/><ellipse cx="18" cy="1038.5891" fill="#84BE84" rx="3" ry="3" style="stroke:#038048;stroke-width:1;"/><text fill="#000000" font-family="sans-serif" font-size="14" lengthAdjust="spacing" textLength="242.5117" x="27" y="1041.9357">double getCharge(int daysRented)</text></g><!--class ChildrenPrice--><g class="entity" data-entity="ChildrenPrice" data-source-line="48" data-uid="ent0007" id="entity_ChildrenPrice"><rect fill="#F1F1F1" height="113.1875" rx="2.5" ry="2.5" style="stroke:#181818;stroke-width:0.5;" width="273.543" x="350.31" y="936.05"/><ellipse cx="436.3539" cy="952.05" fill="#ADD1B2" rx="11" ry="11" style="stroke:#181818;stroke-width:1;"/><path d="M439.3227,957.6906 Q438.7446,957.9875 438.1039,958.1281 Q437.4633,958.2844 436.7602,958.2844 Q434.2602,958.2844 432.9321,956.6438 Q431.6196,954.9875 431.6196,951.8625 Q431.6196,948.7375 432.9321,947.0813 Q434.2602,945.425 436.7602,945.425 Q437.4633,945.425 438.1039,945.5813 Q438.7602,945.7375 439.3227,946.0344 L439.3227,948.7531 Q438.6977,948.175 438.1039,947.9094 Q437.5102,947.6281 436.8852,947.6281 Q435.5414,947.6281 434.8539,948.7063 Q434.1664,949.7688 434.1664,951.8625 Q434.1664,953.9563 434.8539,955.0344 Q435.5414,956.0969 436.8852,956.0969 Q437.5102,956.0969 438.1039,955.8313 Q438.6977,955.55 439.3227,954.9719 L439.3227,957.6906 Z " fill="#000000"/><text fill="#000000" font-family="sans-serif" font-size="14" lengthAdjust="spacing" textLength="92.9551" x="456.8539" y="956.8967">ChildrenPrice</text><line style="stroke:#181818;stroke-width:0.5;" x1="351.31" x2="622.853" y1="968.05" y2="968.05"/><rect fill="none" height="6" style="stroke:#C82930;stroke-width:1;" width="6" x="358.31" y="978.6984"/><text fill="#000000" font-family="sans-serif" font-size="14" lengthAdjust="spacing" text-decoration="underline" textLength="159.0791" x="370.31" y="985.0451">double CHARGE = 1.5;</text><rect fill="none" height="6" style="stroke:#C82930;stroke-width:1;" width="6" x="358.31" y="994.9953"/><text fill="#000000" font-family="sans-serif" font-size="14" lengthAdjust="spacing" text-decoration="underline" textLength="209.8223" x="370.31" y="1001.342">double EXTRA CHARGE = 1.5;</text><rect fill="none" height="6" style="stroke:#C82930;stroke-width:1;" width="6" x="358.31" y="1011.2922"/><text fill="#000000" font-family="sans-serif" font-size="14" lengthAdjust="spacing" text-decoration="underline" textLength="247.543" x="370.31" y="1017.6389">int DAYS RENTED THRESHOLD = 3;</text><line style="stroke:#181818;stroke-width:0.5;" x1="351.31" x2="622.853" y1="1024.9406" y2="1024.9406"/><ellipse cx="361.31" cy="1038.5891" fill="#84BE84" rx="3" ry="3" style="stroke:#038048;stroke-width:1;"/><text fill="#000000" font-family="sans-serif" font-size="14" lengthAdjust="spacing" textLength="242.5117" x="370.31" y="1041.9357">double getCharge(int daysRented)</text></g><!--class NewReleasePrice--><g class="entity" data-entity="NewReleasePrice" data-source-line="54" data-uid="ent0008" id="entity_NewReleasePrice"><rect fill="#F1F1F1" height="129.4844" rx="2.5" ry="2.5" style="stroke:#181818;stroke-width:0.5;" width="341.3486" x="658.4" y="927.91"/><ellipse cx="764.692" cy="943.91" fill="#ADD1B2" rx="11" ry="11" style="stroke:#181818;stroke-width:1;"/><path d="M767.6607,949.5506 Q767.0826,949.8475 766.442,949.9881 Q765.8014,950.1444 765.0982,950.1444 Q762.5982,950.1444 761.2701,948.5038 Q759.9576,946.8475 759.9576,943.7225 Q759.9576,940.5975 761.2701,938.9413 Q762.5982,937.285 765.0982,937.285 Q765.8014,937.285 766.442,937.4413 Q767.0982,937.5975 767.6607,937.8944 L767.6607,940.6131 Q767.0357,940.035 766.442,939.7694 Q765.8482,939.4881 765.2232,939.4881 Q763.8795,939.4881 763.192,940.5663 Q762.5045,941.6288 762.5045,943.7225 Q762.5045,945.8163 763.192,946.8944 Q763.8795,947.9569 765.2232,947.9569 Q765.8482,947.9569 766.442,947.6913 Q767.0357,947.41 767.6607,946.8319 L767.6607,949.5506 Z " fill="#000000"/><text fill="#000000" font-family="sans-serif" font-size="14" lengthAdjust="spacing" textLength="120.2646" x="785.192" y="948.7567">NewReleasePrice</text><line style="stroke:#181818;stroke-width:0.5;" x1="659.4" x2="998.7486" y1="959.91" y2="959.91"/><rect fill="none" height="6" style="stroke:#C82930;stroke-width:1;" width="6" x="666.4" y="970.5584"/><text fill="#000000" font-family="sans-serif" font-size="14" lengthAdjust="spacing" text-decoration="underline" textLength="145.7217" x="678.4" y="976.9051">double CHARGE = 3;</text><rect fill="none" height="6" style="stroke:#C82930;stroke-width:1;" width="6" x="666.4" y="986.8553"/><text fill="#000000" font-family="sans-serif" font-size="14" lengthAdjust="spacing" text-decoration="underline" textLength="196.4648" x="678.4" y="993.202">double EXTRA CHARGE = 1;</text><rect fill="none" height="6" style="stroke:#C82930;stroke-width:1;" width="6" x="666.4" y="1003.1522"/><text fill="#000000" font-family="sans-serif" font-size="14" lengthAdjust="spacing" text-decoration="underline" textLength="247.543" x="678.4" y="1009.4989">int DAYS RENTED THRESHOLD = 2;</text><line style="stroke:#181818;stroke-width:0.5;" x1="659.4" x2="998.7486" y1="1016.8006" y2="1016.8006"/><ellipse cx="669.4" cy="1030.4491" fill="#84BE84" rx="3" ry="3" style="stroke:#038048;stroke-width:1;"/><text fill="#000000" font-family="sans-serif" font-size="14" lengthAdjust="spacing" textLength="242.5117" x="678.4" y="1033.7957">double getCharge(int daysRented)</text><ellipse cx="669.4" cy="1046.7459" fill="#84BE84" rx="3" ry="3" style="stroke:#038048;stroke-width:1;"/><text fill="#000000" font-family="sans-serif" font-size="14" lengthAdjust="spacing" textLength="315.3486" x="678.4" y="1050.0926">int getFrequentRenterPoints(int daysRented)</text></g><!--link Customer to Rental--><g class="link" data-entity-1="Customer" data-entity-2="Rental" data-source-line="62" data-uid="lnk9" id="link_Customer_Rental"><path codeLine="62" d="M487.08,213.98 C487.08,233.6 487.08,236.15 487.08,255.47" fill="none" id="Customer-Rental" style="stroke:#181818;stroke-width:1;"/><polygon fill="none" points="487.08,201.98,483.08,207.98,487.08,213.98,491.08,207.98,487.08,201.98" style="stroke:#181818;stroke-width:1;"/><polygon fill="#181818" points="487.08,261.47,491.08,252.47,487.08,256.47,483.08,252.47,487.08,261.47" style="stroke:#181818;stroke-width:1;"/></g><!--link Rental to Movie--><g class="link" data-entity-1="Rental" data-entity-2="Movie" data-source-line="63" data-uid="lnk10" id="link_Rental_Movie"><path codeLine="63" d="M487.08,440.23 C487.08,459.44 487.08,473.95 487.08,493.72" fill="none" id="Rental-to-Movie" style="stroke:#181818;stroke-width:1;"/><polygon fill="#181818" points="487.08,499.72,491.08,490.72,487.08,494.72,483.08,490.72,487.08,499.72" style="stroke:#181818;stroke-width:1;"/></g><!--reverse link Movie to Price--><g class="link" data-entity-1="Movie" data-entity-2="Price" data-source-line="64" data-uid="lnk11" id="link_Movie_Price"><path codeLine="64" d="M487.08,723.25 C487.08,744.01 487.08,752.82 487.08,770.52" fill="none" id="Movie-backto-Price" style="stroke:#181818;stroke-width:1;"/><polygon fill="#181818" points="487.08,711.25,483.08,717.25,487.08,723.25,491.08,717.25,487.08,711.25" style="stroke:#181818;stroke-width:1;"/></g><!--reverse link Price to RegularPrice--><g class="link" data-entity-1="Price" data-entity-2="RegularPrice" data-source-line="65" data-uid="lnk12" id="link_Price_RegularPrice"><path codeLine="65" d="M379.8939,876.7391 C340.1539,897.6091 309.23,913.85 267.88,935.57" fill="none" id="Price-backto-RegularPrice" style="stroke:#181818;stroke-width:1;"/><polygon fill="none" points="395.83,868.37,377.1042,871.427,382.6836,882.0511,395.83,868.37" style="stroke:#181818;stroke-width:1;"/></g><!--reverse link Price to ChildrenPrice--><g class="link" data-entity-1="Price" data-entity-2="ChildrenPrice" data-source-line="66" data-uid="lnk13" id="link_Price_ChildrenPrice"><path codeLine="66" d="M487.08,886.15 C487.08,907.12 487.08,913.9 487.08,935.74" fill="none" id="Price-backto-ChildrenPrice" style="stroke:#181818;stroke-width:1;"/><polygon fill="none" points="487.08,868.15,481.08,886.15,493.08,886.15,487.08,868.15" style="stroke:#181818;stroke-width:1;"/></g><!--reverse link Price to NewReleasePrice--><g class="link" data-entity-1="Price" data-entity-2="NewReleasePrice" data-source-line="67" data-uid="lnk14" id="link_Price_NewReleasePrice"><path codeLine="67" d="M598.8962,876.4269 C635.4562,894.7269 661.65,907.84 700.76,927.42" fill="none" id="Price-backto-NewReleasePrice" style="stroke:#181818;stroke-width:1;"/><polygon fill="none" points="582.8,868.37,596.2105,881.7923,601.5818,871.0615,582.8,868.37" style="stroke:#181818;stroke-width:1;"/></g><!--SRC=[jLHDRvmm4BtpAtmaRJVAXteYYOI0P2DHkZ94RKyHNJiRIonkiKbKRVU_P_o18UmsImwzy37p7lFUpE1bLGg1ebP8lgODsdWpbCk6rIjKbsiQm6lAXBp0j9PbTOKQVHU1zn55NCWMEFu0VuGWySGPGIKXXkERcsKUGTxYLrHcGF478I5BITS0XA3JOOYtzGFNKSBRdnLLx893F7eicnNL6LPB5xvkwEyMYAeuRHOSSW90MyzRQiDMbBBxXJynYjRg6jYlaFAFq4oYZ5eV0zod4KfPiDLZ5zJ630dY-i5_RRzWiZAntfJpuxvuo8efiG62QXzReWTMWpN5nidDNHfYT8bEWdtvBFbsZvCq2VC4CATxCT7yDernakM0E0lwiKWbNhql6hQaw9Uw1frZVmWotTA0Y1Ewr-y_-xdN_IvQxvoWSj5LyNTgxlRTjT1OsFHL-y_y1xLRjuEhjYgRhlZ6j7xhLZoQX_X63URi6CQtaqw-5pZiGQV7duUWVe1n-2E7JSYA94R572Vv_6iQcs5EiDQ9ZHvPHU1NFAns96IIshTqdhzBPqQVCQreAUXXfUSJT4vLEQsRxrqKpntCV4RuSpsxigUHPm-mBgh_EiyS1HzCq6orPzfmyTS6XqitphsQyJWvQkmB]--></g></svg>